<?xml version="1.0" encoding="UTF-8"?>
<svg id="Layer_2" data-name="Layer 2" xmlns="http://www.w3.org/2000/svg" viewBox="0 0 60.26 61.12">
  <defs>
    <style>
      .cls-1 {
        fill: #fff;
      }
    </style>
  </defs>
  <g id="Layer_1-2" data-name="Layer 1">
    <g>
      <g>
        <path class="cls-1" d="M46.77,43.36s16.78-12.1,9.82-26.93c-2.78-5.92-7.96-10.49-14.1-12.74-5.46-2-13.09-3.06-20.87,1.49-8.7,5.09-13.64,14.89-11.98,24.83,1.09,6.5,5.02,13.52,15.85,17.19,1.3,.44,2.68,.61,4.05,.61h3.14c.83,0,1.65,.22,2.36,.65l13.99,8.26-2.28-13.36Z"/>
        <path d="M49.05,58.71c-.35,0-.7-.09-1.01-.28l-13.99-8.26c-.41-.24-.88-.37-1.35-.37h-3.14c-1.71,0-3.29-.24-4.69-.72-12.3-4.16-16.13-12.49-17.17-18.74-1.76-10.53,3.44-21.33,12.93-26.88C29.22-1.56,37.63-.2,43.18,1.83c6.72,2.46,12.27,7.48,15.22,13.76,6.51,13.88-5.78,25.53-9.46,28.6l2.08,12.2c.13,.76-.19,1.53-.83,1.97-.34,.23-.73,.35-1.13,.35Zm-16.35-12.88c1.19,0,2.35,.32,3.37,.92l10.3,6.08-1.56-9.13c-.13-.75,.18-1.5,.8-1.95h0s4.02-2.94,7.1-7.5c3.94-5.82,4.64-11.53,2.08-16.98-2.51-5.34-7.24-9.61-12.98-11.71-6.9-2.53-13.35-2.07-19.18,1.34-8.08,4.72-12.51,13.88-11.02,22.79,1.26,7.54,6.14,12.79,14.53,15.63,.99,.34,2.14,.51,3.42,.51h3.14Z"/>
      </g>
      <g>
        <path class="cls-1" d="M9.39,50.52S-1.42,42.73,3.06,33.17c1.79-3.82,5.13-6.76,9.09-8.21,3.52-1.29,8.44-1.97,13.45,.96,5.61,3.28,8.79,9.6,7.72,16-.7,4.19-3.23,8.71-10.21,11.08-.84,.28-1.73,.39-2.61,.39h-2.03c-.54,0-1.06,.14-1.52,.42l-9.01,5.32,1.47-8.61Z"/>
        <path d="M7.92,61.12c-.39,0-.79-.12-1.13-.35-.64-.44-.96-1.21-.83-1.97l1.27-7.44c-4.19-3.48-9.76-10.96-5.97-19.04,1.98-4.22,5.7-7.58,10.2-9.23,3.71-1.36,9.36-2.27,15.13,1.11,6.37,3.72,9.86,10.98,8.67,18.05-.7,4.22-3.28,9.84-11.54,12.63-.98,.33-2.07,.5-3.25,.5h-2.03c-.18,0-.36,.05-.51,.14l-9.01,5.32c-.31,.18-.66,.28-1.01,.28ZM18.08,25.84c-1.69,0-3.45,.33-5.25,.99-3.53,1.29-6.43,3.91-7.97,7.18-3.72,7.93,5.31,14.62,5.7,14.9,.61,.44,.92,1.2,.79,1.95l-.75,4.38,5.32-3.14c.77-.45,1.64-.69,2.53-.69h2.03c.74,0,1.41-.1,1.98-.29,5.13-1.74,8.12-4.94,8.89-9.52,.91-5.45-1.81-11.06-6.76-13.96-2.05-1.2-4.22-1.8-6.51-1.8Z"/>
      </g>
    </g>
  </g>
</svg>