<?xml version="1.0" encoding="UTF-8"?>
<svg id="Layer_2" data-name="Layer 2" xmlns="http://www.w3.org/2000/svg" viewBox="0 0 71.27 47.03">
  <g id="Layer_1-2" data-name="Layer 1">
    <g>
      <path d="M34.65,47.03c-.05,0-.11,0-.16,0C15.62,46.89,2.36,22.77,1.81,21.74l-.94-1.75,1.27-1.52C11.76,6.92,22.32,1.14,33.51,1.29c18.41,.26,31.44,16.55,31.99,17.25l1.21,1.54-.96,1.71c-9.38,16.75-19.84,25.25-31.09,25.25ZM7.97,20.67c3.21,5.19,13.73,20.42,26.57,20.5h.1c8.61,0,17-6.88,24.96-20.46-3.46-3.74-13.59-13.39-26.22-13.55-8.83-.1-17.37,4.43-25.42,13.52Z"/>
      <rect x="32.71" y="-17.34" width="5.86" height="78.66" transform="translate(-1.1 42.1) rotate(-60.37)"/>
      <path d="M33.79,38.52c-7.92,0-14.37-6.44-14.37-14.37s6.44-14.37,14.37-14.37,14.37,6.44,14.37,14.37-6.44,14.37-14.37,14.37Zm0-22.87c-4.69,0-8.5,3.82-8.5,8.5s3.81,8.5,8.5,8.5,8.5-3.82,8.5-8.5-3.82-8.5-8.5-8.5Z"/>
    </g>
  </g>
</svg>