<?xml version="1.0" encoding="UTF-8"?>
<svg id="Layer_2" data-name="Layer 2" xmlns="http://www.w3.org/2000/svg" viewBox="0 0 71.27 71.27">
  <defs>
    <style>
      .cls-1 {
        fill: #fff;
      }
    </style>
  </defs>
  <g id="Layer_1-2" data-name="Layer 1">
    <path class="cls-1" d="M51.42,0H19.86C8.89,0,0,8.89,0,19.86v31.56c0,10.97,8.89,19.86,19.86,19.86h31.56c10.97,0,19.86-8.89,19.86-19.86V19.86C71.27,8.89,62.38,0,51.42,0Zm3.73,55.6H16.13c-1.64,0-2.97-1.33-2.97-2.97s1.33-2.97,2.97-2.97H55.15c1.64,0,2.97,1.33,2.97,2.97s-1.33,2.97-2.97,2.97Zm0-17.2H16.13c-1.64,0-2.97-1.33-2.97-2.97s1.33-2.97,2.97-2.97H55.15c1.64,0,2.97,1.33,2.97,2.97s-1.33,2.97-2.97,2.97Zm0-17.2H16.13c-1.64,0-2.97-1.33-2.97-2.97s1.33-2.97,2.97-2.97H55.15c1.64,0,2.97,1.33,2.97,2.97s-1.33,2.97-2.97,2.97Z"/>
  </g>
</svg>