<?xml version="1.0" encoding="UTF-8"?>
<svg id="Layer_2" data-name="Layer 2" xmlns="http://www.w3.org/2000/svg" viewBox="0 0 110.42 63.36">
  <defs>
    <style>
      .cls-1 {
        fill: #fcfcfc;
      }
    </style>
  </defs>
  <g id="Layer_1-2" data-name="Layer 1">
    <g>
      <g>
        <path class="cls-1" d="M87.06,55.66H10.95s-9.74-2.87-8.22-12.93c.58-3.83,2.67-7.28,5.69-9.72,1.74-1.4,3.99-2.8,6.63-3.46,0,0-1.26-15.72,14.78-18.87,0,0,8.02-1.73,11.64,1.89,0,0,9.75-14.15,26.42-8.81,0,0,10.69,2.52,13.84,18.24,0,0,8.4,1.32,13.01,5.93,4.6,4.6,7.66,17.63-.33,24.16,0,0-2.22,2.35-7.33,3.56Z"/>
        <path d="M87.36,58.23H10.58l-.36-.11c-4.11-1.21-11.5-6.07-10.04-15.77,.66-4.4,3.01-8.42,6.61-11.33,1.82-1.47,3.71-2.59,5.64-3.33,.24-6.6,3.89-16.98,16.89-19.52,.77-.17,7.05-1.41,11.67,.95,3.7-4.02,13.44-12.32,27.59-7.82,1.32,.35,11.6,3.55,15.27,18.53,2.93,.68,8.85,2.47,12.68,6.29,3.44,3.44,5.63,9.9,5.34,15.72-.25,5.05-2.24,9.25-5.76,12.17-.66,.64-3.3,2.93-8.46,4.16l-.29,.07ZM11.37,53.09H86.75c3.98-1.01,5.78-2.76,5.8-2.78l.22-.2c3.06-2.5,3.85-6.02,3.98-8.53,.25-4.94-1.79-9.78-3.84-11.82-3.94-3.94-11.52-5.19-11.59-5.21l-1.76-.28-.35-1.75c-2.75-13.76-11.56-16.15-11.93-16.25l-.17-.05c-14.59-4.68-23.16,7.31-23.52,7.82l-1.76,2.52-2.17-2.16c-2.13-2.13-7.55-1.56-9.28-1.19-13.57,2.66-12.79,15.61-12.76,16.16l.16,2.15-2.1,.53c-1.89,.47-3.78,1.47-5.63,2.97-2.6,2.1-4.29,4.98-4.76,8.1-1.04,6.89,4.54,9.41,6.1,9.97Z"/>
      </g>
      <g>
        <path class="cls-1" d="M39.23,60.79h61.81s7.83-2.31,6.7-10.38c-.45-3.18-2.19-6.04-4.69-8.05-1.4-1.13-3.22-2.24-5.33-2.77,0,0,1.02-12.77-12-15.32,0,0-6.51-1.4-9.45,1.53,0,0-7.92-11.49-21.45-7.15,0,0-8.68,2.04-11.24,14.81,0,0-6.82,1.08-10.56,4.81s-6.22,14.32,.27,19.62c0,0,1.8,1.91,5.95,2.89Z"/>
        <path d="M101.41,63.36H38.93l-.29-.07c-4.25-1.01-6.48-2.91-7.08-3.48-2.95-2.46-4.63-5.99-4.84-10.22-.24-4.85,1.6-10.25,4.48-13.13,3.07-3.07,7.73-4.55,10.24-5.17,3.08-12.1,11.46-14.78,12.66-15.11,10.48-3.33,18.67,1.83,22.71,6.2,3.86-1.74,8.8-.77,9.46-.63,10.61,2.08,13.73,10.46,14.04,15.99,1.49,.61,2.95,1.48,4.36,2.61,3.1,2.48,5.09,5.93,5.62,9.7,1.14,8.12-5.07,12.19-8.51,13.2l-.36,.11Zm-61.87-5.14h61.07c1.24-.47,5.29-2.4,4.58-7.45-.35-2.47-1.68-4.74-3.75-6.41-1.43-1.15-2.89-1.92-4.34-2.28l-2.11-.53,.17-2.17c.07-1.06,.44-10.56-9.94-12.6-1.73-.36-5.68-.63-7.14,.83l-2.18,2.18-1.75-2.54c-.28-.4-7.06-9.85-18.55-6.16l-.2,.05c-.26,.07-7.14,1.97-9.31,12.82l-.35,1.76-1.77,.28c-.06,0-6.06,1.01-9.15,4.09-1.59,1.59-3.17,5.37-2.98,9.24,.1,1.94,.71,4.66,3.05,6.58l.24,.23h0s1.38,1.31,4.4,2.09Z"/>
      </g>
    </g>
  </g>
</svg>