<?xml version="1.0" encoding="UTF-8"?>
<svg id="Layer_2" data-name="Layer 2" xmlns="http://www.w3.org/2000/svg" viewBox="0 0 60.79 72.47">
  <defs>
    <style>
      .cls-1 {
        fill: #070707;
      }
    </style>
  </defs>
  <g id="Layer_1-2" data-name="Layer 1">
    <path class="cls-1" d="M23.81,72.47c-.4,0-.8-.1-1.17-.3-1.01-.54-1.51-1.65-1.23-2.77l6.2-25.08H2.47c-.98,0-1.84-.55-2.24-1.45-.4-.89-.25-1.91,.39-2.64L34.93,1.13c1.01-1.15,2.6-1.46,3.96-.77,1.36,.69,2.06,2.15,1.74,3.64l-5.57,25.61h23.27c.98,0,1.86,.58,2.25,1.47,.39,.89,.22,1.93-.43,2.65L25.62,71.66c-.49,.53-1.14,.81-1.81,.81ZM3.43,41.42H28.16c.76,0,1.47,.34,1.94,.94,.47,.6,.64,1.37,.45,2.11l-5.92,23.95L57.34,32.52h-22.83c-.75,0-1.45-.33-1.92-.92-.47-.58-.65-1.34-.49-2.07L37.79,3.39c.02-.07,.07-.3-.21-.44-.27-.14-.42,.03-.48,.09L3.43,41.42Z"/>
  </g>
</svg>