<?xml version="1.0" encoding="UTF-8"?>
<svg id="Layer_2" data-name="Layer 2" xmlns="http://www.w3.org/2000/svg" viewBox="0 0 54.06 54.6">
  <defs>
    <style>
      .cls-1 {
        fill: #fff;
      }
    </style>
  </defs>
  <g id="Layer_1-2" data-name="Layer 1">
    <g>
      <path class="cls-1" d="M13.99,54.6c-4.91,0-8.89-2.14-11.52-6.19-1.62-2.49-2.47-5.54-2.47-8.82V13.82C0,8.95,2.18,5.39,6.67,2.92,9.51,1.37,12.62,.61,16.19,.61h7.45c1,0,1.81,.81,1.81,1.81s-.81,1.81-1.81,1.81h-7.45c-2.98,0-5.45,.59-7.77,1.87-2.23,1.23-4.8,3.21-4.8,7.73v25.77c0,2.58,.65,4.94,1.89,6.85,1.96,3.02,4.81,4.55,8.49,4.55h23.39c5.5,0,10.32-3.91,11.45-9.29,.52-2.69,.2-9.34,.03-11.67-.07-1,.68-1.86,1.67-1.93,.99-.06,1.86,.68,1.93,1.67,.03,.36,.64,8.9-.09,12.63,0,.03-.02,.07-.02,.1-1.47,6.98-7.77,12.1-14.97,12.1H13.99Z"/>
      <path class="cls-1" d="M27.36,27.92c-.47,0-.94-.18-1.29-.54-.7-.71-.69-1.86,.02-2.56L50.22,1.13c.71-.7,1.86-.69,2.56,.02,.7,.71,.69,1.86-.02,2.56L28.63,27.4c-.35,.34-.81,.52-1.27,.52Z"/>
      <path class="cls-1" d="M51.89,17.63s-.03,0-.05,0c-1-.03-1.78-.86-1.76-1.85l.32-12.1-11.91,.38c-.99,.06-1.83-.75-1.86-1.75s.75-1.83,1.75-1.86L52.2,0c.49-.02,.98,.17,1.33,.52,.35,.35,.54,.83,.53,1.33l-.37,14.02c-.02,.98-.83,1.76-1.8,1.76Z"/>
    </g>
  </g>
</svg>