<?xml version="1.0" encoding="UTF-8"?>
<svg id="Layer_2" data-name="Layer 2" xmlns="http://www.w3.org/2000/svg" viewBox="0 0 63.59 66.53">
  <defs>
    <style>
      .cls-1 {
        fill: #020202;
      }

      .cls-2 {
        fill: #fff;
      }
    </style>
  </defs>
  <g id="Layer_1-2" data-name="Layer 1">
    <g>
      <path class="cls-2" d="M23.47,53.46c-.78,0-1.54-.15-2.23-.46-1.56-.7-2.6-2.14-2.84-3.95-.01-.09-.02-.19-.02-.28V11.69C18.38,5.25,23.62,0,30.07,0h22.5c6.07,0,11.01,4.94,11.01,11.01V48.41c0,.98-.41,1.9-1.13,2.52-2.48,2.14-6.07,2.36-8.76,.56l-12.71-8.51-13.94,9.38c-1.08,.72-2.35,1.1-3.58,1.1Zm-.87-4.86c.08,.42,.27,.51,.37,.55,.38,.17,1.11,.12,1.73-.29l15.11-10.17c.71-.48,1.64-.48,2.35,0l13.88,9.29h0c1.01,.68,2.34,.67,3.33,0V11.01c0-3.75-3.05-6.8-6.8-6.8H30.07c-4.12,0-7.48,3.35-7.48,7.48V48.6Zm37.08-.84h0s0,0,0,0Z"/>
      <g>
        <path class="cls-1" d="M36.49,62.81l-13.88-9.29-15.11,10.17c-1.96,1.32-5,.99-5.38-1.84h0V24.77c0-5.29,4.29-9.59,9.59-9.59h22.5c4.92,0,8.91,3.99,8.91,8.91V61.48c0,.35-.14,.7-.41,.93l-.02,.02c-1.74,1.51-4.28,1.66-6.19,.38Z"/>
        <path class="cls-2" d="M5.09,66.53c-.78,0-1.54-.15-2.23-.46-1.56-.7-2.6-2.14-2.84-3.95-.01-.09-.02-.19-.02-.28V24.77c0-6.45,5.25-11.69,11.69-11.69h22.5c6.07,0,11.01,4.94,11.01,11.01V61.48c0,.98-.41,1.9-1.13,2.53-2.47,2.14-6.07,2.36-8.76,.56l-12.71-8.51-13.94,9.38c-1.08,.72-2.35,1.1-3.58,1.1Zm-.87-4.86c.08,.42,.27,.51,.37,.55,.38,.17,1.11,.12,1.73-.29l15.11-10.17c.71-.48,1.64-.48,2.35,0l13.88,9.29h0c1.01,.68,2.34,.67,3.33,0V24.09c0-3.75-3.05-6.8-6.8-6.8H11.69c-4.12,0-7.48,3.35-7.48,7.48V61.68Z"/>
      </g>
    </g>
  </g>
</svg>