<?xml version="1.0" encoding="UTF-8"?>
<svg id="Layer_2" data-name="Layer 2" xmlns="http://www.w3.org/2000/svg" viewBox="0 0 59.44 59.77">
  <defs>
    <style>
      .cls-1 {
        fill: #fff;
      }
    </style>
  </defs>
  <g id="Layer_1-2" data-name="Layer 1">
    <path class="cls-1" d="M56.72,43.55l-11.6-13.3c-.09-.09-.18-.15-.09-.25l8.7-10.24c3.85-4.13,7.94-11.23,3.47-16.34-.32-.37-.64-.7-.97-1-4-3.7-8.46-2.72-13.9-.02L5.43,22.31C1.97,24.18-.11,27.79,0,31.73c.12,3.94,2.41,7.41,5.99,9.07l38.65,17.94c.3,.14,.6,.26,.9,.37,3.06,1.11,6.27,.79,9.03-.91,3.27-2.01,5.16-5.71,4.83-9.79-.22-2.68-.79-2.96-2.69-4.87Zm-2.54,5.37c.12,2.08-.75,3.83-2.35,4.81-1.37,.84-2.96,1-4.48,.45-.17-.06-.33-.13-.49-.2L8.2,36.04c-1.78-.83-2.89-2.5-2.95-4.47s.94-3.7,2.67-4.64L44.74,7.07c5.77-2.85,6.94-1.98,8.5-.18,1.91,2.18-.78,7.41-3.37,10.19,0,0-5.56,6.64-8.64,10.35-1.16,1.4-1.14,3.43,.04,4.81l11.15,12.97c.99,1,1.67,2.3,1.75,3.7Z"/>
  </g>
</svg>