<?xml version="1.0" encoding="UTF-8"?>
<svg id="Layer_2" data-name="Layer 2" xmlns="http://www.w3.org/2000/svg" viewBox="0 0 60.62 60.62">
  <defs>
    <style>
      .cls-1 {
        fill: #141414;
        fill-rule: evenodd;
      }
    </style>
  </defs>
  <g id="Layer_1-2" data-name="Layer 1">
    <path class="cls-1" d="M39.44,8.27c-.72-.3-1.45-.56-2.21-.79V2.08c0-1.15-.93-2.08-2.08-2.08h-9.68c-1.15,0-2.08,.93-2.08,2.08V7.48c-.76,.23-1.49,.49-2.21,.79-.72,.3-1.43,.64-2.12,1.01l-3.81-3.81h0c-.81-.82-2.13-.82-2.94,0l-6.84,6.84h0c-.81,.82-.81,2.14,0,2.95l3.82,3.82c-.37,.69-.71,1.4-1.01,2.12-.3,.72-.56,1.45-.79,2.21H2.08c-1.15,0-2.08,.93-2.08,2.08v9.68c0,1.15,.93,2.08,2.08,2.08H7.48c.23,.76,.49,1.49,.79,2.21,.3,.72,.64,1.43,1.01,2.12l-3.81,3.81h0c-.81,.82-.81,2.14,0,2.95l6.84,6.84h0c.81,.82,2.13,.82,2.94,0l3.82-3.82c.69,.37,1.4,.71,2.12,1.01,.72,.3,1.45,.56,2.21,.79v5.4c0,1.15,.93,2.08,2.08,2.08h9.68c1.15,0,2.08-.93,2.08-2.08v-5.4c.76-.23,1.49-.49,2.21-.79,.72-.3,1.43-.64,2.12-1.01l3.81,3.81h0c.81,.82,2.13,.82,2.94,0l6.84-6.84h0c.81-.82,.81-2.14,0-2.95l-3.82-3.82c.37-.69,.71-1.4,1.01-2.12,.3-.72,.56-1.45,.79-2.21h5.4c1.15,0,2.08-.93,2.08-2.08v-9.68c0-1.15-.93-2.08-2.08-2.08h-5.4c-.23-.76-.49-1.49-.79-2.21-.3-.72-.64-1.43-1.01-2.12l3.81-3.81h0c.81-.82,.81-2.14,0-2.95l-6.84-6.84h0c-.81-.82-2.13-.82-2.94,0l-3.82,3.82c-.69-.37-1.4-.71-2.12-1.01h0Zm-17.37,13.8c2.11-2.11,5.02-3.41,8.24-3.41s6.13,1.31,8.24,3.41,3.41,5.02,3.41,8.24-1.3,6.13-3.41,8.24c-2.11,2.11-5.02,3.41-8.24,3.41s-6.13-1.3-8.24-3.41c-2.11-2.11-3.41-5.02-3.41-8.24s1.3-6.13,3.41-8.24Z"/>
  </g>
</svg>