<?xml version="1.0" encoding="UTF-8"?>
<svg id="Layer_2" data-name="Layer 2" xmlns="http://www.w3.org/2000/svg" viewBox="0 0 65.02 59.89">
  <defs>
    <style>
      .cls-1 {
        fill: #fff;
      }
    </style>
  </defs>
  <g id="Layer_1-2" data-name="Layer 1">
    <g>
      <path class="cls-1" d="M46.94,59.89H15.91c-5.86,0-10.16-2.63-13.12-8.04-1.88-3.42-2.79-7.17-2.79-11.45v-8.98c0-1.2,.97-2.18,2.18-2.18s2.18,.97,2.18,2.18v8.98c0,3.59,.71,6.56,2.25,9.36,1.48,2.69,3.87,5.78,9.31,5.78h31.03c3.1,0,5.95-.79,8.25-2.27,3.63-2.36,5.48-5.8,5.48-10.23v-12.6c0-1.2,.97-2.18,2.18-2.18s2.18,.97,2.18,2.18v12.6c0,5.91-2.58,10.71-7.46,13.88-3,1.95-6.67,2.98-10.62,2.98Z"/>
      <path class="cls-1" d="M32.15,45.08h-.02c-1.2-.01-2.17-.99-2.16-2.2l.36-40.72c.01-1.2,.98-2.16,2.18-2.16h.02c1.2,.01,2.17,.99,2.16,2.2l-.36,40.72c-.01,1.2-.98,2.16-2.18,2.16Z"/>
      <path class="cls-1" d="M32.01,46.25c-.6,0-1.17-.25-1.58-.68l-11.62-12.25c-.83-.87-.79-2.25,.08-3.08,.87-.83,2.25-.79,3.08,.08l10.04,10.58,9.82-10.47c.82-.88,2.2-.92,3.07-.1,.88,.82,.92,2.2,.1,3.07l-11.4,12.15c-.41,.44-.98,.68-1.58,.69h0Z"/>
    </g>
  </g>
</svg>