<?xml version="1.0" encoding="UTF-8"?>
<svg id="Layer_2" data-name="Layer 2" xmlns="http://www.w3.org/2000/svg" viewBox="0 0 74.01 63.28">
  <defs>
    <style>
      .cls-1 {
        fill: #fff;
      }
    </style>
  </defs>
  <g id="Layer_1-2" data-name="Layer 1">
    <g>
      <path class="cls-1" d="M67.21,63.28H6.79c-2.46,0-4.66-1.27-5.88-3.4-1.22-2.13-1.22-4.67,.02-6.8L29.94,3.36C31.14,1.3,33.28,.04,35.67,0c.04,0,.08,0,.12,0,2.34,0,4.48,1.17,5.73,3.16l31.42,49.71c1.34,2.12,1.42,4.7,.21,6.9-1.21,2.2-3.43,3.51-5.94,3.51ZM3.49,54.57c-.7,1.2-.7,2.63-.01,3.83,.69,1.2,1.93,1.92,3.31,1.92h60.42c1.41,0,2.66-.74,3.35-1.98s.64-2.69-.12-3.89L39.02,4.74c-.72-1.14-1.96-1.8-3.3-1.78-1.35,.02-2.55,.73-3.23,1.9L3.49,54.57Z"/>
      <path class="cls-1" d="M37,38.66c-.83,0-1.51,.06-1.51-1.71V19.2c0-1.76,.68-1.67,1.51-1.67s1.51-.09,1.51,1.67v17.74c0,1.76-.68,1.71-1.51,1.71Z"/>
      <circle class="cls-1" cx="36.88" cy="47.28" r="2.4"/>
    </g>
  </g>
</svg>