<?xml version="1.0" encoding="UTF-8"?>
<svg id="Layer_2" data-name="Layer 2" xmlns="http://www.w3.org/2000/svg" viewBox="0 0 64.19 62.48">
  <defs>
    <style>
      .cls-1 {
        fill: #fff;
      }

      .cls-2 {
        fill: #070606;
      }
    </style>
  </defs>
  <g id="Layer_1-2" data-name="Layer 1">
    <g>
      <g>
        <path class="cls-1" d="M61.88,30.77l-2.48,16.83c-1.22,4.93-3.68,7.16-5.57,9.05h0c-2.34,2.34-5.5,3.65-8.81,3.65H18c-3.3,0-6.47-1.31-8.81-3.65h0c-1.81-1.81-3.01-4.12-3.46-6.64L2.37,30.97c-.79-4.44,.89-8.96,4.39-11.82L24.13,4.97c4.58-3.74,11.17-3.74,15.75,0l17.56,14.33c3.39,2.77,5.08,7.12,4.45,11.46Z"/>
        <path class="cls-2" d="M45.03,62.48H18c-3.91,0-7.58-1.52-10.35-4.29-2.13-2.13-3.54-4.83-4.06-7.8L.22,31.35c-.92-5.21,1.05-10.54,5.16-13.89L22.75,3.28c5.36-4.38,13.15-4.38,18.51,0l17.56,14.33c3.97,3.24,5.97,8.4,5.23,13.47l-2.52,17.04c-1.3,5.25-3.92,7.86-5.83,9.76l-.31,.31c-2.77,2.77-6.44,4.29-10.35,4.29ZM32,4.36c-2.31,0-4.61,.77-6.5,2.3L8.14,20.84c-2.88,2.35-4.27,6.09-3.62,9.75l3.37,19.04c.37,2.08,1.36,3.98,2.85,5.47,1.94,1.94,4.52,3.01,7.26,3.01h27.02c2.74,0,5.32-1.07,7.26-3.01l.32-.32c1.7-1.69,3.63-3.61,4.65-7.61l2.46-16.73c.52-3.56-.88-7.18-3.67-9.45L38.5,6.66c-1.88-1.54-4.19-2.3-6.5-2.3Z"/>
      </g>
      <rect x="31.08" y="37.17" width="3.18" height="13.81" rx="1.09" ry="1.09"/>
    </g>
  </g>
</svg>