<?xml version="1.0" encoding="UTF-8"?>
<svg id="Layer_2" data-name="Layer 2" xmlns="http://www.w3.org/2000/svg" viewBox="0 0 76.69 78.48">
  <defs>
    <style>
      .cls-1 {
        fill: #fff;
      }
    </style>
  </defs>
  <g id="Layer_1-2" data-name="Layer 1">
    <g id="Layer_1-2" data-name="Layer 1-2">
      <path class="cls-1" d="M46.33,78.46c-.55,0-1.12-.02-1.74-.1-8.43-.89-11.47-11.69-11.46-18.74l.04-16.24-20.18-.82c-4.14-.16-8.06-2.27-10.5-5.62C.16,33.72-.58,29.71,.46,25.94c1.09-3.91,3.75-6.92,7.5-8.5,.36-.15,.75-.3,1.15-.42L59.78,.63c4.69-1.51,9.75-.27,13.19,3.24,3.45,3.51,4.61,8.58,3.02,13.24l-16.91,49.58c-2.71,7.1-5.96,11.78-12.76,11.78h0Zm-6.57-36.82l-.05,17.98c0,4.75,1.97,11.82,5.57,12.19,2.96,.31,4.77,.12,7.63-7.4L69.78,14.99c.8-2.32,.24-4.76-1.49-6.52s-4.16-2.35-6.5-1.59h0L11.14,23.26c-.21,.06-.41,.15-.62,.24-1.86,.79-3.19,2.29-3.72,4.22-.51,1.85-.15,3.76,1.02,5.37,1.27,1.75,3.31,2.84,5.46,2.92l21.97,.89,12.77-11.96c1.32-1.24,3.4-1.17,4.64,.15,.59,.64,.89,1.44,.89,2.24,0,.87-.35,1.75-1.04,2.4l-12.74,11.93h.01Z"/>
    </g>
  </g>
</svg>