<?xml version="1.0" encoding="UTF-8"?>
<svg id="Layer_2" data-name="Layer 2" xmlns="http://www.w3.org/2000/svg" viewBox="0 0 68.29 69.2">
  <defs>
    <style>
      .cls-1 {
        fill: #fcfcfc;
      }
    </style>
  </defs>
  <g id="Layer_1-2" data-name="Layer 1">
    <g>
      <path class="cls-1" d="M15.29,19.41c-5.35,0-9.71-4.35-9.71-9.71S9.94,0,15.29,0s9.71,4.35,9.71,9.71-4.35,9.71-9.71,9.71Zm0-15.88c-3.41,0-6.17,2.77-6.17,6.17s2.77,6.17,6.17,6.17,6.17-2.77,6.17-6.17-2.77-6.17-6.17-6.17Z"/>
      <path class="cls-1" d="M53.32,19.41c-5.35,0-9.71-4.35-9.71-9.71S47.97,0,53.32,0s9.71,4.35,9.71,9.71-4.35,9.71-9.71,9.71Zm0-15.88c-3.41,0-6.17,2.77-6.17,6.17s2.77,6.17,6.17,6.17,6.17-2.77,6.17-6.17-2.77-6.17-6.17-6.17Z"/>
      <path class="cls-1" d="M34.62,69.2c-8.3,0-15.06-5.04-15.06-11.23s6.75-11.23,15.06-11.23,15.06,5.04,15.06,11.23-6.75,11.23-15.06,11.23Zm0-18.92c-6.25,0-11.53,3.52-11.53,7.7s5.28,7.7,11.53,7.7,11.53-3.52,11.53-7.7-5.28-7.7-11.53-7.7Z"/>
      <path class="cls-1" d="M33.96,44.43c-5.74,0-10.42-4.67-10.42-10.42s4.67-10.42,10.42-10.42,10.42,4.67,10.42,10.42-4.67,10.42-10.42,10.42Zm0-17.3c-3.8,0-6.88,3.09-6.88,6.88s3.09,6.88,6.88,6.88,6.88-3.09,6.88-6.88-3.09-6.88-6.88-6.88Z"/>
      <path class="cls-1" d="M18.64,43.32h-4.94c-.32,0-.46,0-.76-.03l-.32-.02c-5.16-.29-8.83-1.78-10.89-4.44C-.53,35.94,.06,32.77,.09,32.63c1.94-10.07,18.44-8.07,19.14-7.98,.97,.12,1.65,1.01,1.53,1.97s-1.02,1.65-1.97,1.53c-.14-.01-13.93-1.57-15.23,5.16,0,.06-.29,1.8,.99,3.41,1.4,1.76,4.26,2.81,8.26,3.03l.33,.02c.22,.01,.32,.02,.55,.02h4.94c.97,0,1.77,.79,1.77,1.77s-.79,1.77-1.77,1.77Z"/>
      <path class="cls-1" d="M49.65,43.46c-.97,0-1.77-.79-1.77-1.77s.79-1.77,1.77-1.77h4.94c.23,0,.33,0,.55-.02l.34-.02c4.04-.22,6.91-1.29,8.3-3.08,1.23-1.59,.96-3.34,.95-3.35-1.3-6.73-15.09-5.18-15.23-5.16-.96,.13-1.85-.56-1.97-1.53-.12-.97,.56-1.85,1.53-1.97,.7-.09,17.2-2.08,19.14,7.99,.03,.12,.62,3.3-1.63,6.2-2.07,2.66-5.73,4.16-10.89,4.44l-.32,.02c-.3,.02-.44,.03-.76,.03h-4.95Z"/>
    </g>
  </g>
</svg>