<?xml version="1.0" encoding="UTF-8"?>
<svg id="Layer_2" data-name="Layer 2" xmlns="http://www.w3.org/2000/svg" viewBox="0 0 80.43 80.43">
  <defs>
    <style>
      .cls-1 {
        fill: #fff;
      }
    </style>
  </defs>
  <g id="Layer_1-2" data-name="Layer 1">
    <g>
      <path class="cls-1" d="M40.22,58.61c-10.14,0-18.39-8.25-18.39-18.39s8.25-18.39,18.39-18.39,18.39,8.25,18.39,18.39-8.25,18.39-18.39,18.39Zm0-34.53c-8.9,0-16.13,7.24-16.13,16.13s7.24,16.13,16.13,16.13,16.13-7.24,16.13-16.13-7.24-16.13-16.13-16.13Z"/>
      <path class="cls-1" d="M23.83,56.91c.47,.46,.89,.81-.1,1.81l-9.9,10.09c-.98,1-1.32,.57-1.79,.11s-.91-.79,.08-1.79l9.9-10.09c.98-1,1.34-.59,1.81-.13Z"/>
      <path class="cls-1" d="M16.83,40.43c0,.66,.06,1.2-1.35,1.21l-14.14,.13c-1.41,.01-1.34-.53-1.34-1.19s-.09-1.2,1.32-1.21l14.14-.13c1.41-.01,1.37,.53,1.37,1.19Z"/>
      <path class="cls-1" d="M23.53,23.83c-.46,.47-.81,.89-1.81-.1L11.63,13.83c-1-.98-.57-1.32-.11-1.79s.79-.91,1.79,.08l10.09,9.9c1,.98,.59,1.34,.13,1.81Z"/>
      <path class="cls-1" d="M40,16.83c-.66,0-1.2,.06-1.21-1.35l-.13-14.14c-.01-1.41,.53-1.34,1.19-1.34s1.2-.09,1.21,1.32l.13,14.14c.01,1.41-.53,1.37-1.19,1.37Z"/>
      <path class="cls-1" d="M56.6,23.53c-.47-.46-.89-.81,.1-1.81l9.9-10.09c.98-1,1.32-.57,1.79-.11s.91,.79-.08,1.79l-9.9,10.09c-.98,1-1.34,.59-1.81,.13Z"/>
      <path class="cls-1" d="M63.6,40c0-.66-.06-1.2,1.35-1.21l14.14-.13c1.41-.01,1.34,.53,1.34,1.19s.09,1.2-1.32,1.21l-14.14,.13c-1.41,.01-1.37-.53-1.37-1.19Z"/>
      <path class="cls-1" d="M56.91,56.6c.46-.47,.81-.89,1.81,.1l10.09,9.9c1,.98,.57,1.32,.11,1.79s-.79,.91-1.79-.08l-10.09-9.9c-1-.98-.59-1.34-.13-1.81Z"/>
      <path class="cls-1" d="M40.43,63.6c.66,0,1.2-.06,1.21,1.35l.13,14.14c.01,1.41-.53,1.34-1.19,1.34s-1.2,.09-1.21-1.32l-.13-14.14c-.01-1.41,.53-1.37,1.19-1.37Z"/>
    </g>
  </g>
</svg>