<?xml version="1.0" encoding="UTF-8"?>
<svg id="Layer_2" data-name="Layer 2" xmlns="http://www.w3.org/2000/svg" viewBox="0 0 64.68 57.54">
  <defs>
    <style>
      .cls-1 {
        fill: #fff;
      }
    </style>
  </defs>
  <g id="Layer_1-2" data-name="Layer 1">
    <g>
      <path class="cls-1" d="M49.17,18.43c.67,.85,.52,2.08-.31,2.75l-11.93,9.5c-1.04,.82-2.34,1.29-3.66,1.29h-1.36c-1.55,0-3.09-.51-4.32-1.46l-12.31-9.3c-.87-.65-1.03-1.89-.39-2.74,.65-.87,1.89-1.04,2.74-.39l12.32,9.31c.56,.42,1.25,.65,1.95,.65h1.36c.44,0,.88-.15,1.22-.43l11.93-9.5c.85-.67,2.08-.54,2.75,.31Z"/>
      <path class="cls-1" d="M54.62,1.95H10.07C5.59,1.95,1.96,5.58,1.96,10.06V47.48c0,4.48,3.63,8.11,8.11,8.11H54.62c4.48,0,8.11-3.63,8.11-8.11V10.06c0-4.48-3.63-8.11-8.11-8.11Zm6.15,45.53c0,3.39-2.76,6.15-6.15,6.15H10.07c-3.4,0-6.16-2.76-6.16-6.15V10.06c0-3.39,2.76-6.15,6.16-6.15H54.62c3.39,0,6.15,2.76,6.15,6.15V47.48Z"/>
      <path d="M54.62,0H10.07C4.51,0,0,4.51,0,10.06V47.48c0,5.55,4.51,10.06,10.07,10.06H54.62c5.55,0,10.06-4.51,10.06-10.06V10.06c0-5.55-4.51-10.06-10.06-10.06Zm6.15,47.48c0,3.39-2.76,6.15-6.15,6.15H10.07c-3.4,0-6.16-2.76-6.16-6.15V10.06c0-3.39,2.76-6.15,6.16-6.15H54.62c3.39,0,6.15,2.76,6.15,6.15V47.48Z"/>
      <path class="cls-1" d="M54.62,3.91H10.07c-3.4,0-6.16,2.76-6.16,6.15V47.48c0,3.39,2.76,6.15,6.16,6.15H54.62c3.39,0,6.15-2.76,6.15-6.15V10.06c0-3.39-2.76-6.15-6.15-6.15Zm-5.75,17.27l-11.93,9.5c-1.04,.82-2.34,1.29-3.66,1.29h-1.36c-1.55,0-3.09-.51-4.32-1.46l-12.31-9.3c-.87-.65-1.03-1.89-.39-2.74,.65-.87,1.89-1.04,2.74-.39l12.32,9.31c.56,.42,1.25,.65,1.95,.65h1.36c.44,0,.88-.15,1.22-.43l11.93-9.5c.85-.67,2.08-.54,2.75,.31s.52,2.08-.31,2.75Z"/>
      <path d="M48.86,21.18l-11.93,9.5c-1.04,.82-2.34,1.29-3.66,1.29h-1.36c-1.55,0-3.09-.51-4.32-1.46l-12.31-9.3c-.87-.65-1.03-1.89-.39-2.74,.65-.87,1.89-1.04,2.74-.39l12.32,9.31c.56,.42,1.25,.65,1.95,.65h1.36c.44,0,.88-.15,1.22-.43l11.93-9.5c.85-.67,2.08-.54,2.75,.31s.52,2.08-.31,2.75Z"/>
    </g>
  </g>
</svg>