<?xml version="1.0" encoding="UTF-8"?>
<svg id="Layer_2" data-name="Layer 2" xmlns="http://www.w3.org/2000/svg" viewBox="0 0 77.64 85.3">
  <defs>
    <style>
      .cls-1 {
        fill: #050505;
      }

      .cls-2 {
        fill: #fff;
      }
    </style>
  </defs>
  <g id="Layer_1-2" data-name="Layer 1">
    <g>
      <polygon class="cls-1" points="24.49 70.99 24.49 70.99 24.49 70.99 24.49 70.99"/>
      <g>
        <path class="cls-2" d="M48.52,73.08c-.88,2.98-3.44,7.2-11.04,7.23-.75-.06-6.68-.79-9.48-6.63,1.95,.09,3.63,.11,4.75,.11h.19c3.99-.01,9.66-.23,15.58-.71Z"/>
        <path class="cls-2" d="M71.56,57.34l-.92-1.5c-3.4-5.47-6.9-11.14-7.63-14.54-.01-.06-1.16-5.58-.99-7.53,1.01-11.05-2.24-19.29-9.69-24.48-4.09-2.85-8.99-4.31-13.93-4.31-3.38,0-6.76,.68-9.94,2.06-14.71,6.39-14.5,24.44-14.3,28,.03,.57,.03,6.35-.04,7.05-.29,3.15-1.62,5.18-6.59,12.7l-.2,.3c-2.76,4.2-3.7,5.61,.51,9.2,3.15,2.69,13.13,4.49,24.85,4.49h.22c18.26-.04,35.88-2.98,38.28-5.38,1.25-1.25,2.28-2.95,.35-6.08Zm-30.9-24.44c0,.76-.61,1.37-1.36,1.37h-.98c-.75,0-1.36-.61-1.36-1.37V16.83c0-.75,.61-1.36,1.36-1.36h.98c.75,0,1.36,.61,1.36,1.36v16.08Z"/>
      </g>
      <path d="M75.82,54.72l-.94-1.51c-2.88-4.62-6.44-10.4-6.99-12.95-.39-1.82-.94-5.25-.89-6.01,1.48-16.16-5.61-24.71-11.81-29.04C46.9-.57,35.9-1.62,26.48,2.47,8.73,10.17,8.96,31.19,9.17,35.32c.03,.56,.03,5.78-.01,6.32-.18,1.83-1.25,3.52-5.79,10.41l-.2,.3c-2.73,4.14-6.12,9.29,1.45,15.75,3.71,3.18,11.3,4.59,17.89,5.21,2.74,8.91,10.69,11.75,14.74,11.99h.14c5.15,0,9.25-1.49,12.19-4.44,2.74-2.74,3.76-6.1,4.15-8.29,9.34-1.04,18.21-2.81,21.03-5.63,3.44-3.44,3.83-7.79,1.07-12.24Zm-38.34,25.59c-.75-.06-6.68-.79-9.48-6.63,1.95,.09,3.63,.11,4.75,.11h.19c3.99-.01,9.66-.23,15.58-.71-.88,2.98-3.44,7.2-11.04,7.23Zm33.73-16.89c-2.4,2.4-20.01,5.34-38.28,5.38h-.22c-11.73,0-21.7-1.8-24.85-4.49-4.21-3.59-3.28-5-.51-9.2l.2-.3c4.96-7.53,6.3-9.55,6.59-12.7,.06-.7,.06-6.47,.04-7.05-.2-3.56-.41-21.61,14.3-28,3.18-1.39,6.56-2.06,9.94-2.06,4.94,0,9.84,1.46,13.93,4.31,7.45,5.19,10.7,13.43,9.69,24.48-.18,1.95,.97,7.46,.99,7.53,.73,3.4,4.23,9.06,7.63,14.54l.92,1.5c1.92,3.13,.9,4.83-.35,6.08Z"/>
      <path d="M40.66,16.83v16.08c0,.76-.61,1.37-1.36,1.37h-.98c-.75,0-1.36-.61-1.36-1.37V16.83c0-.75,.61-1.36,1.36-1.36h.98c.75,0,1.36,.61,1.36,1.36Z"/>
    </g>
  </g>
</svg>