<?xml version="1.0" encoding="UTF-8"?>
<svg id="Layer_2" data-name="Layer 2" xmlns="http://www.w3.org/2000/svg" viewBox="0 0 68.67 81.28">
  <defs>
    <style>
      .cls-1 {
        fill: #020202;
      }
    </style>
  </defs>
  <g id="Layer_1-2" data-name="Layer 1">
    <g>
      <path class="cls-1" d="M34.24,68.67c-.32,0-.63,0-.95-.01-.48-.01-.97-.04-1.46-.07C14.77,67.36,1.12,53.57,.07,36.51-.54,26.64,3.11,16.98,10.08,10.02,17.06,3.06,26.71-.56,36.59,.07c17.29,1.11,31.06,15,32.02,32.31,.27,4.86-.46,9.6-2.16,14.09h0c-2.47,6.54-7.05,12.15-13.24,16.24l-.23,.15c-5.77,3.81-12.23,5.81-18.75,5.81Zm.14-62.67c-7.51,0-14.73,2.96-20.06,8.27-5.76,5.74-8.77,13.71-8.27,21.87,.87,14.08,12.13,25.45,26.2,26.46,.4,.03,.8,.05,1.2,.06,5.59,.16,11.21-1.5,16.23-4.81l.23-.15c5.12-3.38,8.91-8,10.93-13.35,1.4-3.71,2-7.62,1.78-11.64-.79-14.28-12.15-25.74-26.42-26.65-.61-.04-1.22-.06-1.83-.06Z"/>
      <g>
        <path class="cls-1" d="M47.57,64.57l9.15,14.11c.68,1.05,2.15,1.42,3.29,.84l.04-.02c1.13-.59,1.5-1.92,.82-2.97l-9.15-14.1c-.6-.93-1.85-1.35-2.93-.98-.02,0-.03,.01-.05,.02-1.37,.47-1.93,1.93-1.17,3.11Z"/>
        <path class="cls-1" d="M58.83,81.28c-1.33,0-2.62-.64-3.37-1.79l-9.15-14.11c-.6-.93-.74-2.04-.39-3.06,.37-1.06,1.22-1.89,2.33-2.28,1.77-.62,3.75,.05,4.73,1.56l9.15,14.1c.56,.86,.72,1.87,.47,2.83-.26,.97-.93,1.8-1.85,2.28-.61,.32-1.26,.47-1.91,.47Zm-10-17.53l9.15,14.1c.26,.41,.89,.55,1.33,.32,.22-.11,.34-.25,.38-.4,.04-.14,0-.29-.08-.44l-9.15-14.1c-.23-.36-.76-.52-1.18-.38-.29,.1-.46,.25-.52,.43-.05,.15-.03,.3,.07,.45h0Z"/>
      </g>
    </g>
  </g>
</svg>